<svg width="1200" height="750" viewBox="0 0 1200 750" fill="none" xmlns="http://www.w3.org/2000/svg" role="img" aria-label="Project cover">
  <defs>
    <linearGradient id="bg" x1="120" y1="80" x2="1040" y2="720" gradientUnits="userSpaceOnUse">
      <stop stop-color="#071028"/>
      <stop offset="1" stop-color="#050712"/>
    </linearGradient>
    <radialGradient id="glow" cx="0" cy="0" r="1" gradientUnits="userSpaceOnUse" gradientTransform="translate(330 290) rotate(90) scale(300 380)">
      <stop stop-color="#36D1FF" stop-opacity="0.9"/>
      <stop offset="1" stop-color="#36D1FF" stop-opacity="0"/>
    </radialGradient>
  </defs>
  <rect width="1200" height="750" rx="36" fill="url(#bg)"/>
  <circle cx="330" cy="290" r="300" fill="url(#glow)"/>
  <rect x="110" y="140" width="980" height="470" rx="26" fill="#0B1633" stroke="#48E6FF" stroke-opacity="0.25"/>
  <rect x="150" y="185" width="430" height="24" rx="12" fill="#48E6FF" fill-opacity="0.35"/>
  <rect x="150" y="230" width="670" height="16" rx="8" fill="#FFFFFF" fill-opacity="0.08"/>
  <rect x="150" y="262" width="610" height="16" rx="8" fill="#FFFFFF" fill-opacity="0.08"/>
  <rect x="150" y="294" width="540" height="16" rx="8" fill="#FFFFFF" fill-opacity="0.08"/>
  <rect x="150" y="360" width="900" height="190" rx="18" fill="#071028" stroke="#48E6FF" stroke-opacity="0.18"/>
  <rect x="180" y="392" width="260" height="20" rx="10" fill="#36D1FF" fill-opacity="0.25"/>
  <rect x="180" y="428" width="520" height="14" rx="7" fill="#FFFFFF" fill-opacity="0.08"/>
  <rect x="180" y="456" width="480" height="14" rx="7" fill="#FFFFFF" fill-opacity="0.08"/>
  <rect x="180" y="484" width="420" height="14" rx="7" fill="#FFFFFF" fill-opacity="0.08"/>
</svg>

