<svg width="1200" height="750" viewBox="0 0 1200 750" fill="none" xmlns="http://www.w3.org/2000/svg" role="img" aria-label="Project cover">
  <defs>
    <linearGradient id="bg" x1="140" y1="40" x2="1040" y2="740" gradientUnits="userSpaceOnUse">
      <stop stop-color="#071028"/>
      <stop offset="1" stop-color="#04040C"/>
    </linearGradient>
    <radialGradient id="glow" cx="0" cy="0" r="1" gradientUnits="userSpaceOnUse" gradientTransform="translate(520 540) rotate(90) scale(340 440)">
      <stop stop-color="#48E6FF" stop-opacity="0.85"/>
      <stop offset="1" stop-color="#48E6FF" stop-opacity="0"/>
    </radialGradient>
  </defs>
  <rect width="1200" height="750" rx="36" fill="url(#bg)"/>
  <circle cx="520" cy="540" r="340" fill="url(#glow)"/>
  <rect x="110" y="120" width="980" height="520" rx="26" fill="#0B1633" stroke="#48E6FF" stroke-opacity="0.2"/>
  <rect x="150" y="170" width="420" height="22" rx="11" fill="#48E6FF" fill-opacity="0.25"/>
  <rect x="150" y="220" width="900" height="330" rx="18" fill="#071028" stroke="#48E6FF" stroke-opacity="0.14"/>
  <rect x="185" y="255" width="240" height="260" rx="16" fill="#0D1B3D" stroke="#36D1FF" stroke-opacity="0.18"/>
  <rect x="455" y="255" width="560" height="16" rx="8" fill="#FFFFFF" fill-opacity="0.10"/>
  <rect x="455" y="285" width="520" height="16" rx="8" fill="#FFFFFF" fill-opacity="0.08"/>
  <rect x="455" y="315" width="480" height="16" rx="8" fill="#FFFFFF" fill-opacity="0.08"/>
  <rect x="455" y="360" width="250" height="38" rx="19" fill="#36D1FF" fill-opacity="0.18" stroke="#48E6FF" stroke-opacity="0.25"/>
  <rect x="720" y="360" width="220" height="38" rx="19" fill="#FFFFFF" fill-opacity="0.05" stroke="#48E6FF" stroke-opacity="0.18"/>
</svg>

